<?xml version="1.0"?>
<svg xmlns="http://www.w3.org/2000/svg" xmlns:xlink="http://www.w3.org/1999/xlink" version="1.1" id="Capa_1" x="0px" y="0px" viewBox="0 0 512 512" style="enable-background:new 0 0 512 512;" xml:space="preserve" width="512px" height="512px" class=""><g><g>
	<g>
		<path d="M256,0c-16,0-31.77,1.477-47.17,4.329L256,44.273l47.17-39.944C287.771,1.477,272,0,256,0z" data-original="#000000" class="active-path" data-old_color="#000000" fill="#FFFFFF"/>
	</g>
</g><g>
	<g>
		<path d="M173.344,13.591c-36.631,12.455-70.203,33.23-98.363,61.39c-8.7,8.7-16.684,17.923-23.949,27.586l33.546,81.964    l54.401,17.675L241,128.083v-57.2L173.344,13.591z" data-original="#000000" class="active-path" data-old_color="#000000" fill="#FFFFFF"/>
	</g>
</g><g>
	<g>
		<path d="M480.8,133.312l-23.436,57.262l52.54,32.501C505.859,191.372,495.979,161.031,480.8,133.312z" data-original="#000000" class="active-path" data-old_color="#000000" fill="#FFFFFF"/>
	</g>
</g><g>
	<g>
		<path d="M31.201,133.312c-15.178,27.719-25.058,58.06-29.104,89.763l52.54-32.502L31.201,133.312z" data-original="#000000" class="active-path" data-old_color="#000000" fill="#FFFFFF"/>
	</g>
</g><g>
	<g>
		<polygon points="256,154.267 157.453,225.866 195.094,341.715 316.906,341.715 354.547,225.866   " data-original="#000000" class="active-path" data-old_color="#000000" fill="#FFFFFF"/>
	</g>
</g><g>
	<g>
		<path d="M437.018,74.98c-28.16-28.16-61.732-48.936-98.363-61.39L271,70.883v57.2l102.021,74.123l54.4-17.676l33.546-81.964    C453.702,92.903,445.719,83.68,437.018,74.98z" data-original="#000000" class="active-path" data-old_color="#000000" fill="#FFFFFF"/>
	</g>
</g><g>
	<g>
		<path d="M380.451,427.29l-14.707,60.138c26.129-12.413,50.215-29.348,71.276-50.409c1.694-1.694,3.354-3.412,4.995-5.145    L380.451,427.29z" data-original="#000000" class="active-path" data-old_color="#000000" fill="#FFFFFF"/>
	</g>
</g><g>
	<g>
		<path d="M436.693,213.061l-51.922,16.87l-39.916,122.847l32.09,44.168l88.346,6.578c29.665-41.895,45.945-91.637,46.665-143.904    L436.693,213.061z" data-original="#000000" class="active-path" data-old_color="#000000" fill="#FFFFFF"/>
	</g>
</g><g>
	<g>
		<path d="M131.551,427.291l-61.564,4.583c1.64,1.732,3.301,3.451,4.995,5.145c21.061,21.061,45.147,37.996,71.275,50.409    L131.551,427.291z" data-original="#000000" class="active-path" data-old_color="#000000" fill="#FFFFFF"/>
	</g>
</g><g>
	<g>
		<path d="M127.229,229.931l-51.922-16.87L0.044,259.62c0.72,52.267,17.001,102.009,46.665,143.904l88.346-6.578l32.09-44.168    L127.229,229.931z" data-original="#000000" class="active-path" data-old_color="#000000" fill="#FFFFFF"/>
	</g>
</g><g>
	<g>
		<path d="M321.532,371.715H190.469v0l-31.143,42.865l21.059,86.116C204.565,508.135,229.984,512,256,512    s51.436-3.865,75.615-11.304l21.06-86.116L321.532,371.715z" data-original="#000000" class="active-path" data-old_color="#000000" fill="#FFFFFF"/>
	</g>
</g></g> </svg>
