<?xml version="1.0"?>
<svg xmlns="http://www.w3.org/2000/svg" xmlns:xlink="http://www.w3.org/1999/xlink" version="1.1" id="Capa_1" x="0px" y="0px" viewBox="0 0 512 512" style="enable-background:new 0 0 512 512;" xml:space="preserve" width="512px" height="512px" class=""><g><g>
	<g>
		<path d="M485.053,4.491H26.947C12.086,4.491,0,16.577,0,31.439s12.086,26.947,26.947,26.947h458.105    C499.914,58.386,512,46.3,512,31.439S499.914,4.491,485.053,4.491z M485.053,40.421H26.947c-4.954,0-8.982-4.029-8.982-8.982    c0-4.954,4.029-8.982,8.982-8.982h458.105c4.954,0,8.982,4.029,8.982,8.982S490.006,40.421,485.053,40.421z" data-original="#000000" class="active-path" data-old_color="#000000" fill="#FFFFFF"/>
	</g>
</g><g>
	<g>
		<path d="M485.053,336.842H26.947C12.086,336.842,0,348.928,0,363.789s12.086,26.947,26.947,26.947h458.105    c14.862,0,26.947-12.086,26.947-26.947S499.914,336.842,485.053,336.842z M485.053,372.772H26.947    c-4.954,0-8.982-4.029-8.982-8.982s4.029-8.982,8.982-8.982h458.105c4.954,0,8.982,4.029,8.982,8.982    S490.006,372.772,485.053,372.772z" data-original="#000000" class="active-path" data-old_color="#000000" fill="#FFFFFF"/>
	</g>
</g><g>
	<g>
		<path d="M322.362,453.61H189.638c-10.46,0-18.971,8.511-18.971,18.971v15.957c0,10.46,8.511,18.971,18.971,18.971h132.725    c10.46,0,18.971-8.511,18.971-18.971V472.58C341.333,462.12,332.822,453.61,322.362,453.61z M323.368,488.542    c0,0.552-0.454,1.006-1.006,1.006H189.638c-0.552,0-1.006-0.454-1.006-1.006v-15.957c0-0.552,0.449-1.006,1.006-1.006h132.725    c0.552,0,1.006,0.454,1.006,1.006V488.542z" data-original="#000000" class="active-path" data-old_color="#000000" fill="#FFFFFF"/>
	</g>
</g><g>
	<g>
		<path d="M476.07,40.421H35.93c-4.958,0-8.982,4.024-8.982,8.982v296.421c0,4.958,4.024,8.982,8.982,8.982h440.14    c4.958,0,8.982-4.024,8.982-8.982V49.403C485.053,44.445,481.029,40.421,476.07,40.421z M467.088,336.842H44.912V58.386h422.175    V336.842z" data-original="#000000" class="active-path" data-old_color="#000000" fill="#FFFFFF"/>
	</g>
</g><g>
	<g>
		<path d="M154.561,146.351l-49.404-49.404c-3.503-3.508-9.198-3.508-12.701,0c-3.508,3.508-3.508,9.194,0,12.701l49.404,49.404    c1.752,1.756,4.051,2.632,6.351,2.632c2.3,0,4.599-0.876,6.351-2.632C158.069,155.545,158.069,149.859,154.561,146.351z" data-original="#000000" class="active-path" data-old_color="#000000" fill="#FFFFFF"/>
	</g>
</g><g>
	<g>
		<path d="M154.561,96.948c-3.503-3.508-9.198-3.508-12.701,0l-49.404,49.404c-3.508,3.508-3.508,9.194,0,12.701    c1.752,1.756,4.051,2.632,6.351,2.632s4.599-0.876,6.351-2.632l49.404-49.404C158.069,106.141,158.069,100.455,154.561,96.948z" data-original="#000000" class="active-path" data-old_color="#000000" fill="#FFFFFF"/>
	</g>
</g><g>
	<g>
		<path d="M406.07,272.105l-49.404-49.403c-3.508-3.508-9.194-3.508-12.701,0c-3.508,3.508-3.508,9.194,0,12.701l49.404,49.403    c1.756,1.756,4.051,2.632,6.351,2.632s4.595-0.876,6.351-2.632C409.578,281.299,409.578,275.613,406.07,272.105z" data-original="#000000" class="active-path" data-old_color="#000000" fill="#FFFFFF"/>
	</g>
</g><g>
	<g>
		<path d="M406.07,222.702c-3.508-3.508-9.194-3.508-12.701,0l-49.404,49.403c-3.508,3.508-3.508,9.194,0,12.701    c1.756,1.756,4.051,2.632,6.351,2.632s4.595-0.876,6.351-2.632l49.404-49.403C409.578,231.896,409.578,226.21,406.07,222.702z" data-original="#000000" class="active-path" data-old_color="#000000" fill="#FFFFFF"/>
	</g>
</g><g>
	<g>
		<path d="M341.329,121.263c-4.958,0-8.982,4.024-8.982,8.982v29.301c-46.664-47.333-108.818-51.564-111.751-51.739    c-4.9-0.296-9.189,3.481-9.485,8.426c-0.301,4.945,3.472,9.203,8.417,9.508c0.723,0.045,72.731,5.147,114.495,63.623    c1.72,2.403,4.464,3.759,7.312,3.759c0.912,0,1.837-0.139,2.735-0.427c3.719-1.195,6.243-4.648,6.243-8.556v-53.895    C350.311,125.287,346.287,121.263,341.329,121.263z" data-original="#000000" class="active-path" data-old_color="#000000" fill="#FFFFFF"/>
	</g>
</g><g>
	<g>
		<rect x="287.439" y="175.158" width="53.895" height="17.965" data-original="#000000" class="active-path" data-old_color="#000000" fill="#FFFFFF"/>
	</g>
</g><g>
	<g>
		<path d="M269.474,372.772h-26.947c-4.958,0-8.982,4.024-8.982,8.982v80.842c0,4.958,4.024,8.982,8.982,8.982h26.947    c4.958,0,8.982-4.024,8.982-8.982v-80.842C278.456,376.796,274.432,372.772,269.474,372.772z M260.491,453.614h-8.982v-62.877    h8.982V453.614z" data-original="#000000" class="active-path" data-old_color="#000000" fill="#FFFFFF"/>
	</g>
</g></g> </svg>
