<svg id="Layer_1" enable-background="new 0 0 512 512" height="512" viewBox="0 0 512 512" width="512" xmlns="http://www.w3.org/2000/svg"><g clip-rule="evenodd" fill-rule="evenodd"><path d="m6.717 370.157c-11.86 11.873-8.013 26.196 11.539 27.158l55.686 7.059c19.291 2.421 15.444 3.238 17.746 21.587l5.886 50.758c.991 19.603 15.298 23.424 27.129 11.552l39.572-39.585 40.504-40.577c-3.526-1.313-7.139-3.296-10.403-6.097l-28.732-72.548-87.74-30.571z" fill="#ff646f"/><path d="m130.939 423.919-35.376 35.414 2.011 17.386c.991 19.603 15.298 23.424 27.129 11.552l39.572-39.585 40.504-40.577c-3.526-1.313-7.139-3.296-10.403-6.097l-22.904-18.669z" fill="#fc2b3a"/><path d="m307.206 408.108 40.533 40.577 39.543 39.585c11.86 11.873 26.168 8.051 27.158-11.552l5.857-50.758c2.302-18.349-1.544-19.165 17.775-21.587l55.657-7.059c19.582-.963 23.399-15.286 11.568-27.158l-71.655-71.732-95.753 9.714z" fill="#ff646f"/><path d="m406.31 330.98 68.624 68.727 18.795-2.392c19.582-.963 23.399-15.286 11.568-27.158l-71.655-71.732-54.346 5.513z" fill="#fc2b3a"/><path d="m271.072 20.688 26.663 12.602 37.765 2.421c5.362.35 17.047 4.288 24.303 14.469l17.775 23.599 32.287 19.749c4.604 2.8 13.142 11.727 14.832 24.154l4.808 29.171 19.465 32.555c2.768 4.638 6.178 16.511 1.923 28.267l-9.266 28.121 2.156 37.864c.321 5.397-2.156 17.503-11.365 25.962l-21.214 20.536-15.648 34.568c-2.215 4.901-10.024 14.498-22.088 17.648l-28.324 8.314-29.839 23.308c-4.254 3.325-15.59 8.168-27.77 5.338l-28.907-5.834-37.211 6.709c-5.303.963-17.6-.029-27.042-8.197l-22.904-18.669-36.075-11.406c-5.129-1.604-15.532-8.226-20.136-19.865l-11.627-27.187-26.663-26.925c-3.788-3.851-9.966-14.556-8.625-27.012l2.302-29.492-11.131-36.26c-1.603-5.163-2.098-17.532 4.837-27.946l15.706-25.029 6.935-37.31c.991-5.309 6.294-16.482 17.251-22.462l25.497-14.877 23.428-29.784c3.322-4.23 13.2-11.668 25.672-11.843l29.46-1.284 34.56-15.461c4.899-2.188 17.079-4.171 28.21 1.488z" fill="#ffe287"/><path d="m255.716 365.84c83.893 0 151.906-68.085 151.906-152.098 0-83.983-68.012-152.069-151.906-152.069-83.923 0-151.935 68.085-151.935 152.069 0 84.012 68.012 152.098 151.935 152.098z" fill="#fdb440"/><path d="m407.621 213.742c0-68.727-45.545-126.806-108.079-145.622 29.373 42.035 47.498 99.707 47.498 163.387 0 34.48-5.303 67.21-14.861 96.644-2.36 7.322-5.012 14.44-7.897 21.353 22.263-11.289 41.378-27.917 55.657-48.191 17.425-24.737 27.682-54.958 27.682-87.571z" fill="#fe9900"/><path d="m450.894 207.674c4.254-11.756.845-23.629-1.923-28.267l-19.465-32.555-4.808-29.171c-1.69-12.427-10.228-21.353-14.832-24.154l-32.287-19.749-17.776-23.598c-7.256-10.181-18.941-14.119-24.303-14.469l-37.765-2.421-26.663-12.602c-8.451-4.288-17.513-4.201-23.516-2.917 19.582 11.989 37.211 29.171 51.985 50.349 62.534 18.815 108.079 76.895 108.079 145.622 0 32.613-10.257 62.834-27.683 87.571-14.278 20.274-33.394 36.901-55.657 48.191-3.934 9.393-8.305 18.407-13.113 26.896-6.819 12.077-14.453 23.162-22.816 33.109 5.77 1.196 11.335.671 15.969-.525 4.925-1.284 8.858-3.325 10.986-4.988l29.839-23.308 28.324-8.314c12.064-3.15 19.873-12.748 22.088-17.648l15.648-34.568 20.514-19.895.699-.642c9.208-8.46 11.685-20.566 11.365-25.962l-2.156-37.864z" fill="#ffd64d"/><path d="m279.931 287.603v-142.442c0-5.63-1.778-10.21-5.333-13.769-3.526-3.53-7.868-5.309-12.967-5.309h-35.638c-5.129 0-9.5 1.779-13.113 5.309-3.642 3.559-5.449 7.818-5.449 12.777 0 4.784 1.807 8.985 5.449 12.631 3.934 3.471 8.334 5.192 13.113 5.192h14.104v125.61c0 5.28 1.923 9.86 5.799 13.74s8.625 5.834 14.249 5.834c5.595 0 10.286-1.954 14.104-5.834 3.788-3.879 5.682-8.459 5.682-13.739z" fill="#fff1c7"/><path d="m279.931 287.603v-136.025c0 52.566-14.978 100.64-39.776 137.629.35 4.609 2.273 8.664 5.741 12.135 3.876 3.88 8.625 5.834 14.249 5.834 5.595 0 10.286-1.954 14.104-5.834 3.788-3.879 5.682-8.459 5.682-13.739z" fill="#ffe287"/></g></svg>