<?xml version="1.0"?>
<svg xmlns="http://www.w3.org/2000/svg" height="512px" viewBox="-2 0 490 490.66667" width="512px" class=""><g><path d="m299 106.667969c0 58.910156-47.757812 106.664062-106.667969 106.664062-58.910156 0-106.664062-47.753906-106.664062-106.664062 0-58.910157 47.753906-106.667969 106.664062-106.667969 58.910157 0 106.667969 47.757812 106.667969 106.667969zm0 0" data-original="#000000" class="active-path" data-old_color="#000000" fill="#FFFFFF"/><path d="m246.390625 443.734375c-11.113281-19.242187-8.894531-42.945313 4.332031-59.734375-13.226562-16.789062-15.445312-40.46875-4.332031-59.734375l17.261719-29.867187c9.492187-16.445313 27.199218-26.664063 46.207031-26.664063 2.601563 0 5.160156.191406 7.699219.554687.707031-1.75 1.601562-3.394531 2.476562-5.058593-11.519531-4.542969-23.957031-7.230469-37.035156-7.230469h-181.332031c-55.875 0-101.335938 45.460938-101.335938 101.332031v74.667969c0 8.832031 7.167969 16 16 16h232.511719zm0 0" data-original="#000000" class="active-path" data-old_color="#000000" fill="#FFFFFF"/><path d="m463.332031 394.003906c.425781-3.304687 1-6.589844 1-10.003906 0-3.433594-.597656-6.699219-1-10.003906l19.21875-14.550782c4.289063-3.242187 5.484375-9.171874 2.796875-13.84375l-17.257812-29.867187c-2.691406-4.652344-8.429688-6.59375-13.378906-4.503906l-22.121094 9.324219c-5.398438-4.117188-11.136719-7.742188-17.472656-10.390626l-2.945313-23.488281c-.679687-5.332031-5.203125-9.34375-10.578125-9.34375h-34.496094c-5.378906 0-9.921875 4.011719-10.582031 9.34375l-2.945313 23.488281c-6.335937 2.648438-12.09375 6.292969-17.472656 10.390626l-22.121094-9.324219c-4.949218-2.089844-10.6875-.167969-13.375 4.503906l-17.261718 29.867187c-2.6875 4.648438-1.492188 10.578126 2.796875 13.84375l19.21875 14.550782c-.425781 3.304687-1 6.589844-1 10.003906 0 3.433594.597656 6.699219 1 10.003906l-19.21875 14.550782c-4.289063 3.242187-5.484375 9.171874-2.796875 13.84375l17.261718 29.890624c2.6875 4.648438 8.425782 6.589844 13.375 4.5l22.121094-9.34375c5.398438 4.117188 11.136719 7.742188 17.472656 10.390626l2.945313 23.488281c.660156 5.332031 5.183594 9.34375 10.558594 9.34375h34.496093c5.375 0 9.921876-4.011719 10.582032-9.34375l2.945312-23.488281c6.335938-2.648438 12.09375-6.292969 17.46875-10.390626l22.125 9.324219c4.949219 2.089844 10.6875.167969 13.375-4.503906l17.257813-29.886719c2.6875-4.652344 1.496093-10.582031-2.792969-13.84375zm-79 32.664063c-23.570312 0-42.664062-19.09375-42.664062-42.667969s19.09375-42.667969 42.664062-42.667969c23.574219 0 42.667969 19.09375 42.667969 42.667969s-19.09375 42.667969-42.667969 42.667969zm0 0" data-original="#000000" class="active-path" data-old_color="#000000" fill="#FFFFFF"/></g> </svg>
