<?xml version="1.0" encoding="iso-8859-1"?>
<!-- Generator: Adobe Illustrator 19.0.0, SVG Export Plug-In . SVG Version: 6.00 Build 0)  -->
<svg version="1.1" id="Capa_1" xmlns="http://www.w3.org/2000/svg" xmlns:xlink="http://www.w3.org/1999/xlink" x="0px" y="0px"
	 viewBox="0 0 512 512" style="enable-background:new 0 0 512 512;" xml:space="preserve">
<path style="fill:#EBEBED;" d="M512,256c0,118.941-81.105,218.927-191.028,247.683C300.23,509.106,278.455,512,256,512
	c-38.693,0-75.379-8.579-108.262-23.949C60.468,447.258,0,358.693,0,256C0,148.961,65.693,57.271,158.96,19.038
	c15.433-6.332,31.629-11.201,48.41-14.43C223.117,1.588,239.376,0,256,0C397.385,0,512,114.615,512,256z"/>
<path style="fill:#1B3466;" d="M320.972,503.683C300.23,509.106,278.455,512,256,512c-38.693,0-75.379-8.579-108.262-23.949
	c8.098-9.488,17.836-17.544,28.766-23.719c-1.442-21.953,35.035-2.006,60.071-47.961c18.934-34.764,19.623-97.27-27.732-122.859
	c-47.355-25.6-80.196-70.395-80.196-110.926c0-63.99,61.848-73.801,53.321-134.384c-2.215-15.694-12.925-24.398-23.009-29.163
	c-9.028-4.284-17.565-5.413-19.007-5.569C147.686,6.844,161.729,0,186.661,0c8.213,0,15.047,1.661,20.71,4.608
	c27.596,14.346,27.335,59.246,22.382,91.805c-5.977,39.246-3.845,66.121,8.526,87.458c6.99,12.048,21.274,25.569,32.381,35.046
	c7.826,6.677,19.895,3.762,23.771-5.757c2.278-5.59,4.347-11.515,6.134-17.774c15.778-55.453,71.241-67.835,71.241-67.835
	c3.5,7.314,6.301,15.6,8.568,24.221c-0.303,0.094-0.606,0.209-0.909,0.313c-11.295,4.075-19.665,9.613-18.672,12.351
	c0.993,2.727,10.815,1.682,22.016-2.33c6.917,32.705,6.917,66.205,6.917,66.205c-28.17,0.533-61.346,9.404-85.326,41.305
	c-50.333,66.978-25.172,99.401-25.172,99.401l-19.195,31.138c0,0,3.845,3.845,20.48,2.142c16.374-1.682,29.027-16.185,29.424-16.624
	c-0.209,0.752-7.241,24.775-33.698,28.139c-26.875,3.406-27.721,10.24-27.721,25.6c0,9.592,6.823,14.023,11.954,15.997
	c0.909,0.282,1.818,0.585,2.727,0.888c1.682,0.46,1.964,0.7,1.964,0.7C288.778,465.565,308.506,482.252,320.972,503.683z"/>
<path style="fill:#FFFFFF;" d="M180.367,9.28c0,0,24.65-2.248,35.195,15.678c9.598,16.318,7.359,47.993,5.759,61.432
	c-1.6,13.438-5.759,45.754-3.519,56.312c0,0-38.395-6.399-36.795-30.716c1.6-24.317,16.318-36.475,8.959-67.19
	c0,0,13.438-2.88,9.279-15.997c-2.347-7.403-5.306-10.629-7.439-12.033c0,0-3.68,2.995-7.519,0.835
	C180.447,15.438,180.367,9.28,180.367,9.28z"/>
<g>
</g>
<g>
</g>
<g>
</g>
<g>
</g>
<g>
</g>
<g>
</g>
<g>
</g>
<g>
</g>
<g>
</g>
<g>
</g>
<g>
</g>
<g>
</g>
<g>
</g>
<g>
</g>
<g>
</g>
</svg>
