<svg id="Layer_1" data-name="Layer 1" xmlns="http://www.w3.org/2000/svg" viewBox="0 0 597.03 535.58"><title>Untitled-3</title>
<path d="M254.8,483.18c-1.63,0-3.26,0-4.89-.05A238.25,238.25,0,0,1,89.6,73.13,238.26,238.26,0,0,1,492.88,249.69l-16-.32,16,.32A238.26,238.26,0,0,1,254.8,483.18Zm-.24-444.57A206.33,206.33,0,0,0,48.4,240.81c-2.28,113.74,88.41,208.13,202.15,210.4,1.41,0,2.83,0,4.23,0A206.31,206.31,0,0,0,403.44,102,205,205,0,0,0,258.79,38.66C257.38,38.63,256,38.61,254.56,38.61Z"/>
<path d="M561.26,533.85a15.88,15.88,0,0,1-10.62-4.06L413,407a16,16,0,0,1,21.26-23.83L571.9,506a16,16,0,0,1-10.64,27.89Z"/></svg>
